<svg width="80" height="80" viewBox="0 0 80 80" fill="none" xmlns="http://www.w3.org/2000/svg">
<path d="M6.46497 6.46492C7.40261 5.52756 8.67415 5.00098 9.99997 5.00098C11.3258 5.00098 12.5973 5.52756 13.535 6.46492L40 32.9299L66.465 6.46492C66.9262 5.98737 67.4779 5.60646 68.0879 5.34441C68.698 5.08237 69.3541 4.94443 70.018 4.93867C70.6819 4.9329 71.3402 5.0594 71.9547 5.31081C72.5692 5.56221 73.1275 5.93348 73.5969 6.40294C74.0664 6.87241 74.4377 7.43067 74.6891 8.04515C74.9405 8.65963 75.067 9.31803 75.0612 9.98192C75.0555 10.6458 74.9175 11.3019 74.6555 11.9119C74.3934 12.522 74.0125 13.0737 73.535 13.5349L47.07 39.9999L73.535 66.4649C74.4458 67.4079 74.9497 68.6709 74.9383 69.9819C74.9269 71.2929 74.4011 72.547 73.4741 73.474C72.547 74.401 71.293 74.9269 69.982 74.9383C68.671 74.9497 67.408 74.4457 66.465 73.5349L40 47.0699L13.535 73.5349C12.592 74.4457 11.3289 74.9497 10.018 74.9383C8.70698 74.9269 7.45292 74.401 6.52588 73.474C5.59884 72.547 5.07299 71.2929 5.0616 69.9819C5.05021 68.6709 5.55418 67.4079 6.46497 66.4649L32.93 39.9999L6.46497 13.5349C5.52761 12.5973 5.00104 11.3257 5.00104 9.99992C5.00104 8.6741 5.52761 7.40256 6.46497 6.46492Z" fill="#ED143B" fill-opacity="0.3"/>
</svg>
