<svg width="48" height="48" viewBox="0 0 48 48" fill="none" xmlns="http://www.w3.org/2000/svg">
<circle cx="24" cy="24" r="24" fill="#825493"/>
<path d="M25.519 30.6836C20.5517 28.4558 13.3671 24.7596 6.53162 24.152" stroke="#D8D8D8" stroke-width="2" stroke-linejoin="round"/>
<path d="M25.519 30.6836C20.5517 28.4557 10.481 27.7975 5.62024 28.2532" stroke="#D8D8D8" stroke-width="2" stroke-linejoin="round"/>
<path d="M25.519 30.6836C21.8734 26.7342 13.3671 22.0254 8.6582 20.3545" stroke="#D8D8D8" stroke-width="2" stroke-linejoin="round"/>
<path d="M25.519 30.6836C22.6329 25.0633 15.3418 19.1393 11.8481 17.0127" stroke="#D8D8D8" stroke-width="2" stroke-linejoin="round"/>
<path d="M15.1899 13.9746C18.5317 17.6202 24.3038 24.7594 25.519 30.6835L20.6582 11.848" stroke="#D8D8D8" stroke-width="2" stroke-linejoin="round"/>
<path d="M25.2336 11.4835C27.5829 11.3215 29.6589 11.2405 31.4614 11.2405C36.464 11.2405 38.9652 12.9114 38.9652 16.2531C38.9652 17.5088 38.6007 18.5924 37.8716 19.5038C37.1424 20.3949 35.9779 21.0025 34.3779 21.3266C35.9171 21.5088 37.1323 21.9747 38.0235 22.724C38.9146 23.4734 39.3602 24.7797 39.3602 26.643C39.3602 30.5519 36.8589 32.5063 31.8564 32.5063H25.2336V11.4835ZM27.7551 32.2025H31.8564C33.6589 32.2025 34.9348 31.7367 35.6842 30.805C36.4538 29.8531 36.8386 28.405 36.8386 26.4607C36.8386 24.5164 36.4538 23.2202 35.6842 22.5721C34.9146 21.924 33.7703 21.5797 32.2513 21.5392H27.7551V32.2025ZM31.4614 11.5443C30.2867 11.5443 29.0513 11.6152 27.7551 11.7569V21.2354H32.2513C35.107 21.1139 36.5348 19.4734 36.5348 16.3139C36.5348 14.7747 36.1095 13.6 35.2589 12.7898C34.4083 11.9595 33.1424 11.5443 31.4614 11.5443Z" fill="white"/>
<path d="M4.86078 31.2911C4.86078 30.62 5.40484 30.0759 6.07597 30.0759H25.519V32.5063H6.07597C5.40484 32.5063 4.86078 31.9622 4.86078 31.2911Z" fill="white"/>
</svg>
