<svg width="260" height="40" viewBox="0 0 260 40" fill="none" xmlns="http://www.w3.org/2000/svg">
<path d="M38.7747 36.3893C29.4514 32.252 15.9661 25.3879 3.13617 24.2595" stroke="#311A38" stroke-width="2" stroke-linejoin="round"/>
<path d="M38.7747 36.3893C29.4514 32.252 10.549 31.0296 1.42554 31.8759" stroke="#311A38" stroke-width="2" stroke-linejoin="round"/>
<path d="M38.7747 36.3892C31.9321 29.0549 15.966 20.3102 7.12769 17.2073" stroke="#311A38" stroke-width="2" stroke-linejoin="round"/>
<path d="M38.7748 36.3893C33.3577 25.9521 19.6725 14.9507 13.115 11.0015" stroke="#311A38" stroke-width="2" stroke-linejoin="round"/>
<path d="M38.7748 36.3892C38.6001 35.547 38.3754 34.6915 38.1064 33.8267L38.7748 36.3892Z" fill="#311A38"/>
<path d="M19.3874 5.35962C25.6598 12.1297 36.4939 25.3878 38.7748 36.3892L29.6513 1.4104" stroke="#311A38" stroke-width="2" stroke-linejoin="round"/>
<path d="M70.7593 0.733428C75.169 0.432534 79.0654 0.282087 82.4487 0.282087C91.8383 0.282087 96.5331 3.38505 96.5331 9.59097C96.5331 12.2238 95.8868 14.5745 94.5943 16.6432C93.3019 18.7118 91.078 20.0846 87.9228 20.7616L99.3271 39.7743H94.0241L82.8479 21.1001H75.4921V39.7743H70.7593V0.733428ZM82.4487 0.846261C80.2439 0.846261 77.925 0.977902 75.4921 1.24119V20.536H83.9313C89.2913 20.3103 91.9713 16.6996 91.9713 9.7038C91.9713 6.84532 91.173 4.66385 89.5764 3.15938C87.9798 1.6173 85.6039 0.846261 82.4487 0.846261Z" fill="#311A38"/>
<path d="M127.7 0.282087V0.846261H109.739V17.7715H126.389V18.3357H109.739V39.2102H128.955V39.7743H105.006V0.282087H127.7Z" fill="#311A38"/>
<path d="M147.281 39.7743H142.548V0.846261H132.683V0.282087H157.203V0.846261H147.281V39.7743Z" fill="#311A38"/>
<path d="M156.756 39.7743H156.071L173.121 0.282087L173.748 0L188.117 39.7743H183.271L178.823 27.3625H162.173L156.756 39.7743ZM171.353 6.37518L162.401 26.7983H178.652L171.353 6.37518Z" fill="#311A38"/>
<path d="M193.267 0.733428C197.676 0.432534 201.573 0.282087 204.956 0.282087C214.346 0.282087 219.041 3.38505 219.041 9.59097C219.041 12.2238 218.394 14.5745 217.102 16.6432C215.809 18.7118 213.586 20.0846 210.43 20.7616L221.835 39.7743H216.532L205.355 21.1001H198V39.7743H193.267V0.733428ZM204.956 0.846261C202.751 0.846261 200.433 0.977902 198 1.24119V20.536H206.439C211.799 20.3103 214.479 16.6996 214.479 9.7038C214.479 6.84532 213.681 4.66385 212.084 3.15938C210.487 1.6173 208.111 0.846261 204.956 0.846261Z" fill="#311A38"/>
<path d="M224.647 20.9873C224.647 14.142 226.319 8.95157 229.664 5.41608C233.048 1.84297 237.381 0.0564166 242.665 0.0564166C247.949 0.0564166 252.15 1.59849 255.267 4.68265C258.422 7.76681 260 12.6939 260 19.464C260 26.2341 258.327 31.3493 254.982 34.8096C251.637 38.2699 247.17 40 241.582 40C236.754 40 232.801 38.6272 229.721 35.8815C228.125 34.4523 226.87 32.4777 225.958 29.9577C225.084 27.4001 224.647 24.41 224.647 20.9873ZM242.494 0.620594C238.655 0.620594 235.5 2.31312 233.029 5.69817C230.596 9.08322 229.379 14.048 229.379 20.5924C229.379 27.1368 230.539 31.9135 232.858 34.9224C235.177 37.9314 238.256 39.4358 242.095 39.4358C245.973 39.4358 249.128 37.7433 251.561 34.3582C254.032 30.9356 255.267 25.9897 255.267 19.5205C255.267 13.0136 254.089 8.23695 251.732 5.19041C249.413 2.14387 246.334 0.620594 242.494 0.620594Z" fill="#311A38"/>
<path d="M38.2391 0.733445C42.6488 0.432551 46.5452 0.282104 49.9285 0.282104C59.3181 0.282104 64.0129 3.38507 64.0129 9.59099C64.0129 11.9229 63.3286 13.9351 61.9601 15.6277C60.5916 17.2826 58.4057 18.4109 55.4026 19.0127C58.2917 19.3512 60.5726 20.2163 62.2452 21.6079C63.9178 22.9995 64.7542 25.4255 64.7542 28.8858C64.7542 36.1448 60.0594 39.7743 50.6698 39.7743H38.2391V0.733445ZM42.9719 39.2102H50.6698C54.0531 39.2102 56.448 38.3451 57.8545 36.615C59.2991 34.8472 60.0214 32.158 60.0214 28.5473C60.0214 24.9365 59.2991 22.5294 57.8545 21.3258C56.41 20.1223 54.2622 19.4829 51.4111 19.4076H42.9719V39.2102ZM49.9285 0.846278C47.7237 0.846278 45.4048 0.977919 42.9719 1.2412V18.8435H51.4111C56.7711 18.6178 59.4511 15.5712 59.4511 9.70382C59.4511 6.84534 58.6528 4.66386 57.0562 3.1594C55.4596 1.61732 53.0837 0.846278 49.9285 0.846278Z" fill="#311A38"/>
<path d="M0 37.5176C0 36.2712 1.01036 35.2609 2.2567 35.2609H38.7748V39.7743H2.2567C1.01036 39.7743 0 38.7639 0 37.5176Z" fill="#311A38"/>
</svg>
