<svg width="158" height="158" viewBox="0 0 158 158" fill="none" xmlns="http://www.w3.org/2000/svg">
<circle cx="79" cy="79" r="79" fill="#825493"/>
<path d="M84 101C67.6495 93.6667 44 81.5 21.5 79.5" stroke="#D8D8D8" stroke-width="2" stroke-linejoin="round"/>
<path d="M84 101C67.6495 93.6667 34.5 91.5 18.5 93" stroke="#D8D8D8" stroke-width="2" stroke-linejoin="round"/>
<path d="M84 101C72 88 44 72.5 28.5 67" stroke="#D8D8D8" stroke-width="2" stroke-linejoin="round"/>
<path d="M84 101C74.5 82.5 50.5 63 39 56" stroke="#D8D8D8" stroke-width="2" stroke-linejoin="round"/>
<path d="M50 46C61 58 80 81.5 84 101L68 39" stroke="#D8D8D8" stroke-width="2" stroke-linejoin="round"/>
<path d="M83.0605 37.8C90.7939 37.2667 97.6272 37 103.561 37C120.027 37 128.261 42.5 128.261 53.5C128.261 57.6333 127.061 61.2 124.661 64.2C122.261 67.1333 118.427 69.1333 113.161 70.2C118.227 70.8 122.227 72.3333 125.161 74.8C128.094 77.2667 129.561 81.5667 129.561 87.7C129.561 100.567 121.327 107 104.861 107H83.0605V37.8ZM91.3605 106H104.861C110.794 106 114.994 104.467 117.461 101.4C119.994 98.2667 121.261 93.5 121.261 87.1C121.261 80.7 119.994 76.4333 117.461 74.3C114.927 72.1667 111.161 71.0333 106.161 70.9H91.3605V106ZM103.561 38C99.6939 38 95.6272 38.2333 91.3605 38.7V69.9H106.161C115.561 69.5 120.261 64.1 120.261 53.7C120.261 48.6333 118.861 44.7667 116.061 42.1C113.261 39.3667 109.094 38 103.561 38Z" fill="white"/>
<path d="M16 102C16 100.343 17.3431 99 19 99H84V107H19C17.3431 107 16 105.657 16 104V102Z" fill="white"/>
</svg>
